<svg width="1920" height="1080" viewBox="0 0 1920 1080" fill="none" xmlns="http://www.w3.org/2000/svg">
<path fill-rule="evenodd" clip-rule="evenodd" d="M1920 80H0V1000H1920V80ZM217 113C208.163 113 201 120.163 201 129V951C201 959.837 208.163 967 217 967H1703.22C1712.06 967 1719.22 959.837 1719.22 951V129C1719.22 120.163 1712.06 113 1703.22 113H217Z" fill="#02011E"/>
<rect x="218" y="880" width="309" height="70" rx="16" fill="#131035"/>
<path d="M313.831 928V902.8H324.991C326.551 902.8 327.967 903.16 329.239 903.88C330.511 904.576 331.507 905.524 332.227 906.724C332.971 907.924 333.343 909.292 333.343 910.828C333.343 912.34 332.971 913.72 332.227 914.968C331.507 916.192 330.511 917.164 329.239 917.884C327.967 918.604 326.551 918.964 324.991 918.964H319.051V928H313.831ZM328.123 928L321.715 916.624L327.259 915.724L334.387 928.036L328.123 928ZM319.051 914.572H324.739C325.387 914.572 325.951 914.428 326.431 914.14C326.935 913.828 327.319 913.408 327.583 912.88C327.847 912.328 327.979 911.716 327.979 911.044C327.979 910.324 327.823 909.7 327.511 909.172C327.199 908.644 326.743 908.236 326.143 907.948C325.543 907.636 324.847 907.48 324.055 907.48H319.051V914.572ZM346.651 928.36C344.587 928.36 342.775 927.94 341.215 927.1C339.679 926.26 338.479 925.108 337.615 923.644C336.775 922.18 336.355 920.5 336.355 918.604C336.355 917.116 336.595 915.76 337.075 914.536C337.555 913.312 338.227 912.256 339.091 911.368C339.955 910.456 340.975 909.76 342.151 909.28C343.351 908.776 344.647 908.524 346.039 908.524C347.335 908.524 348.535 908.764 349.639 909.244C350.743 909.724 351.691 910.396 352.483 911.26C353.299 912.1 353.923 913.108 354.355 914.284C354.787 915.436 354.979 916.684 354.931 918.028L354.895 919.612H339.595L338.767 916.48H350.683L350.107 917.128V916.336C350.059 915.688 349.843 915.112 349.459 914.608C349.099 914.08 348.631 913.672 348.055 913.384C347.479 913.072 346.831 912.916 346.111 912.916C345.055 912.916 344.155 913.12 343.411 913.528C342.691 913.936 342.139 914.536 341.755 915.328C341.371 916.12 341.179 917.08 341.179 918.208C341.179 919.36 341.419 920.356 341.899 921.196C342.403 922.036 343.099 922.696 343.987 923.176C344.899 923.632 345.967 923.86 347.191 923.86C348.031 923.86 348.799 923.728 349.495 923.464C350.191 923.2 350.935 922.744 351.727 922.096L354.175 925.516C353.479 926.14 352.711 926.668 351.871 927.1C351.031 927.508 350.167 927.82 349.279 928.036C348.391 928.252 347.515 928.36 346.651 928.36ZM358.708 935.92V908.956H363.64L363.784 913.24L362.848 912.916C363.016 912.148 363.424 911.44 364.072 910.792C364.744 910.144 365.572 909.616 366.556 909.208C367.54 908.8 368.572 908.596 369.652 908.596C371.308 908.596 372.784 909.028 374.08 909.892C375.376 910.732 376.396 911.896 377.14 913.384C377.884 914.848 378.256 916.54 378.256 918.46C378.256 920.356 377.884 922.048 377.14 923.536C376.396 925.024 375.376 926.2 374.08 927.064C372.784 927.904 371.308 928.324 369.652 928.324C368.548 928.324 367.492 928.12 366.484 927.712C365.5 927.28 364.66 926.716 363.964 926.02C363.292 925.324 362.86 924.58 362.668 923.788L363.856 923.284V935.92H358.708ZM368.5 923.932C369.436 923.932 370.264 923.704 370.984 923.248C371.704 922.792 372.268 922.156 372.676 921.34C373.084 920.5 373.288 919.54 373.288 918.46C373.288 917.38 373.084 916.432 372.676 915.616C372.268 914.8 371.704 914.164 370.984 913.708C370.288 913.252 369.46 913.024 368.5 913.024C367.54 913.024 366.7 913.252 365.98 913.708C365.26 914.14 364.696 914.776 364.288 915.616C363.88 916.432 363.676 917.38 363.676 918.46C363.676 919.54 363.88 920.5 364.288 921.34C364.696 922.156 365.26 922.792 365.98 923.248C366.7 923.704 367.54 923.932 368.5 923.932ZM382.158 928V901.36H387.27V928H382.158ZM399.235 928.36C397.651 928.36 396.223 927.928 394.951 927.064C393.679 926.2 392.671 925.024 391.927 923.536C391.183 922.048 390.811 920.344 390.811 918.424C390.811 916.504 391.183 914.8 391.927 913.312C392.695 911.824 393.727 910.66 395.023 909.82C396.319 908.98 397.795 908.56 399.451 908.56C400.387 908.56 401.239 908.704 402.007 908.992C402.799 909.256 403.483 909.628 404.059 910.108C404.659 910.588 405.163 911.14 405.571 911.764C405.979 912.388 406.267 913.06 406.435 913.78L405.355 913.6V908.956H410.431V928H405.283V923.428L406.435 923.32C406.243 923.992 405.931 924.628 405.499 925.228C405.067 925.828 404.527 926.368 403.879 926.848C403.255 927.304 402.547 927.676 401.755 927.964C400.963 928.228 400.123 928.36 399.235 928.36ZM400.639 923.932C401.599 923.932 402.439 923.704 403.159 923.248C403.879 922.792 404.431 922.156 404.815 921.34C405.223 920.5 405.427 919.528 405.427 918.424C405.427 917.344 405.223 916.396 404.815 915.58C404.431 914.764 403.879 914.128 403.159 913.672C402.439 913.192 401.599 912.952 400.639 912.952C399.703 912.952 398.875 913.192 398.155 913.672C397.459 914.128 396.907 914.764 396.499 915.58C396.091 916.396 395.887 917.344 395.887 918.424C395.887 919.528 396.091 920.5 396.499 921.34C396.907 922.156 397.459 922.792 398.155 923.248C398.875 923.704 399.703 923.932 400.639 923.932ZM417.798 936.28L421.974 926.488L422.046 929.44L412.758 908.956H418.554L423.198 919.936C423.39 920.344 423.57 920.824 423.738 921.376C423.93 921.904 424.086 922.408 424.206 922.888L423.342 923.284C423.51 922.876 423.678 922.408 423.846 921.88C424.038 921.352 424.23 920.788 424.422 920.188L428.418 908.956H434.25L426.258 928L422.982 936.28H417.798Z" fill="white"/>
</svg>
