<svg width="48" height="48" viewBox="0 0 48 48" fill="none" xmlns="http://www.w3.org/2000/svg">
<path d="M33 24C33 26.0812 32.8875 28.0875 32.6906 30H15.3094C15.1031 28.0875 15 26.0812 15 24C15 21.9188 15.1125 19.9125 15.3094 18H32.6906C32.8969 19.9125 33 21.9188 33 24ZM35.7 18H47.2406C47.7375 19.9219 48 21.9281 48 24C48 26.0719 47.7375 28.0781 47.2406 30H35.7C35.8969 28.0688 36 26.0625 36 24C36 21.9375 35.8969 19.9312 35.7 18ZM46.2562 15H35.3156C34.3781 9.00937 32.5219 3.99375 30.1312 0.7875C37.4719 2.72813 43.4437 8.05313 46.2469 15H46.2562ZM32.2781 15H15.7219C16.2937 11.5875 17.175 8.56875 18.2531 6.12188C19.2375 3.90938 20.3344 2.30625 21.3937 1.29375C22.4438 0.3 23.3156 0 24 0C24.6844 0 25.5562 0.3 26.6062 1.29375C27.6656 2.30625 28.7625 3.90938 29.7469 6.12188C30.8344 8.55938 31.7062 11.5781 32.2781 15ZM12.6844 15H1.74375C4.55625 8.05313 10.5188 2.72813 17.8688 0.7875C15.4781 3.99375 13.6219 9.00937 12.6844 15ZM0.759375 18H12.3C12.1031 19.9312 12 21.9375 12 24C12 26.0625 12.1031 28.0688 12.3 30H0.759375C0.2625 28.0781 0 26.0719 0 24C0 21.9281 0.2625 19.9219 0.759375 18ZM18.2531 41.8688C17.1656 39.4313 16.2937 36.4125 15.7219 33H32.2781C31.7062 36.4125 30.825 39.4313 29.7469 41.8688C28.7625 44.0812 27.6656 45.6844 26.6062 46.6969C25.5562 47.7 24.6844 48 24 48C23.3156 48 22.4438 47.7 21.3937 46.7063C20.3344 45.6938 19.2375 44.0906 18.2531 41.8781V41.8688ZM12.6844 33C13.6219 38.9906 15.4781 44.0063 17.8688 47.2125C10.5188 45.2719 4.55625 39.9469 1.74375 33H12.6844ZM46.2562 33C43.4437 39.9469 37.4813 45.2719 30.1406 47.2125C32.5312 44.0063 34.3781 38.9906 35.325 33H46.2562Z" fill="#FFC6DE"/>
</svg>
