<svg width="33" height="48" viewBox="0 0 33 48" fill="none" xmlns="http://www.w3.org/2000/svg">
<path d="M16.32 0C11.4055 0 7.41818 4.03125 7.41818 9V24C7.41818 28.9688 11.4055 33 16.32 33C21.2345 33 25.2218 28.9688 25.2218 24V9C25.2218 4.03125 21.2345 0 16.32 0ZM4.45091 20.25C4.45091 19.0031 3.45873 18 2.22545 18C0.992182 18 0 19.0031 0 20.25V24C0 32.3531 6.13855 39.2531 14.0945 40.35V43.5H9.64364C8.41036 43.5 7.41818 44.5031 7.41818 45.75C7.41818 46.9969 8.41036 48 9.64364 48H16.32H22.9964C24.2296 48 25.2218 46.9969 25.2218 45.75C25.2218 44.5031 24.2296 43.5 22.9964 43.5H18.5455V40.35C26.5015 39.2531 32.64 32.3531 32.64 24V20.25C32.64 19.0031 31.6478 18 30.4145 18C29.1813 18 28.1891 19.0031 28.1891 20.25V24C28.1891 30.6281 22.8758 36 16.32 36C9.76418 36 4.45091 30.6281 4.45091 24V20.25Z" fill="#FFC6DE"/>
</svg>
