<svg width="48" height="48" viewBox="0 0 48 48" fill="none" xmlns="http://www.w3.org/2000/svg">
<path d="M46.7857 0.595625C47.545 1.15807 47.9949 2.05797 47.9949 3.00475V9.75403V34.5014C47.9949 38.6447 43.9641 42.0006 38.9959 42.0006C34.0277 42.0006 29.9968 38.6447 29.9968 34.5014C29.9968 30.3581 34.0277 27.0022 38.9959 27.0022C40.0458 27.0022 41.0582 27.1522 41.9956 27.4334V13.7849L17.9981 20.9841V40.5008C17.9981 44.6441 13.9673 48 8.99905 48C4.03083 48 0 44.6441 0 40.5008C0 36.3575 4.03083 33.0016 8.99905 33.0016C10.0489 33.0016 11.0613 33.1516 11.9987 33.4328V18.7531V12.0038C11.9987 10.6821 12.8705 9.51031 14.136 9.12598L44.1328 0.126925C45.0421 -0.144922 46.0264 0.0238104 46.7857 0.595625Z" fill="#FFC6DE"/>
</svg>
