<svg width="174" height="80" viewBox="0 0 174 80" fill="none" xmlns="http://www.w3.org/2000/svg">
<g opacity="0.8">
<mask id="mask0_35_77" style="mask-type:luminance" maskUnits="userSpaceOnUse" x="0" y="0" width="80" height="80">
<path d="M80 0H0V80H80V0Z" fill="white"/>
</mask>
<g mask="url(#mask0_35_77)">
<path d="M-14.2883 40.0001V-14.2883H40.0001H94.2885V40.0001V94.2884H40.0001H-14.2883V40.0001ZM34.0623 49.429V41.8927L32.1007 41.9536L30.1391 42.0146L30.0832 49.2233C30.0525 53.1881 30.0733 56.552 30.1296 56.6986C30.2012 56.8852 30.8051 56.965 32.1471 56.965H34.0623V49.429ZM42.3331 52.2467C42.3335 46.7549 42.4311 46.3686 44.0212 45.5667C45.1271 45.0091 45.6767 44.9748 46.6945 45.4C47.9413 45.9209 48.0585 46.4957 48.0585 52.0888V56.981L50.0201 56.9201L51.9817 56.8592L52.0431 52.1938C52.124 46.0454 51.7803 44.1348 50.3589 42.8303C48.5422 41.1631 44.8909 41.3757 42.928 43.263L42.3569 43.8121L42.2919 42.9134L42.2268 42.0148H40.3182H38.4096L38.3537 49.2235C38.323 53.1884 38.3438 56.5522 38.4001 56.6988C38.4717 56.8854 39.0756 56.9652 40.4175 56.9652H42.3328L42.3331 52.2467ZM59.8887 54.53C59.9458 52.3394 59.9828 52.166 60.5116 51.6142C60.8208 51.2914 61.1275 51.0281 61.1931 51.0291C61.2588 51.0299 62.3622 52.3616 63.6452 53.9882L65.9779 56.9457L68.2451 56.9554C70.3055 56.965 71.1048 56.7858 70.5474 56.4412C70.4325 56.37 68.891 54.5418 67.1218 52.3782L63.905 48.4443L64.4113 47.9705C64.6898 47.7099 66.182 46.3194 67.7274 44.8806C69.2729 43.4418 70.5373 42.1844 70.5373 42.0865C70.5373 41.9888 69.4173 41.9086 68.0484 41.9086H65.5595L62.7468 44.7155L59.9341 47.5224V41.7466V35.9708H57.9195H55.9049V46.476V56.981L57.8665 56.9201L59.828 56.8592L59.8887 54.53ZM33.8339 38.2872C35.7507 36.3704 33.2699 33.684 30.7456 34.9429C29.4361 35.596 29.4367 38.0575 30.7464 38.6917C30.9955 38.8123 31.6452 38.9175 32.1903 38.9255C33.0243 38.9383 33.2848 38.8363 33.8339 38.2872ZM22.6478 37.4725C25.0552 36.5526 26.4616 34.5209 26.4778 31.9396C26.4977 28.7767 24.6016 26.9892 20.0661 25.8946C17.1847 25.1992 16.2489 24.5754 16.2489 23.35C16.2489 22.0045 18.2148 21.1119 20.1989 21.5565C21.429 21.8322 21.8039 22.0336 22.8554 22.9836L23.6987 23.7454L25.0005 22.4435L26.3024 21.1416L25.6553 20.3388C23.5935 17.7805 18.8011 16.9439 15.5047 18.5667C12.9914 19.804 11.8314 21.7415 12.0645 24.3125C12.3261 27.1972 14.0052 28.6589 18.3666 29.7984C21.4998 30.617 22.7461 31.6514 22.1969 32.9774C21.8175 33.8931 20.8505 34.3367 19.2334 34.3367C17.4133 34.3367 16.0656 33.7484 14.6163 32.3211L13.5138 31.2354L12.4956 32.3642C10.7135 34.34 10.7408 34.1563 12.0413 35.416C14.0576 37.3689 16.2171 38.1262 19.4299 38.007C20.838 37.9548 21.8067 37.7938 22.6478 37.4725Z" fill="white"/>
</g>
<path d="M133.062 74.866C148.782 74.866 161.524 70.7546 161.524 65.6758C161.457 64.8008 161.177 63.9555 160.708 63.2138C160.239 62.4721 159.595 61.8565 158.833 61.4209L139.297 32.2859V12.719C140.302 12.3033 140.907 11.7894 140.907 11.2075C140.907 9.84708 137.392 8.74365 133.062 8.74365H133.107C128.776 8.74365 125.262 9.84708 125.262 11.2075C125.262 11.7743 125.821 12.3638 126.834 12.7795L126.879 32.2708L107.335 61.4209C106.573 61.8565 105.93 62.4721 105.461 63.2138C104.992 63.9555 104.712 64.8008 104.645 65.6758C104.645 70.7546 117.387 74.866 133.107 74.866" stroke="white" stroke-width="3.13645" stroke-miterlimit="10"/>
<path d="M117.614 60.4607C120.259 61.2165 125.549 63.1059 130.84 63.1059" stroke="white" stroke-width="3.02308" stroke-miterlimit="10" stroke-linecap="round"/>
<path d="M120.637 54.7925C124.211 56.1002 127.979 56.8027 131.784 56.8708" stroke="white" stroke-width="3.02308" stroke-miterlimit="10" stroke-linecap="round"/>
<path d="M123.645 48.9731C126.548 50.0326 129.625 50.5327 132.714 50.4469" stroke="white" stroke-width="3.02308" stroke-miterlimit="10" stroke-linecap="round"/>
<path d="M126.305 43.0779C127.817 43.4558 128.95 44.0226 133.863 44.0226" stroke="white" stroke-width="3.02308" stroke-miterlimit="10" stroke-linecap="round"/>
<path d="M162.113 14.7368C168.369 21.8876 171.764 31.0971 171.645 40.5976C171.527 50.098 167.904 59.2199 161.471 66.2123" stroke="white" stroke-width="3.13645" stroke-miterlimit="10"/>
<path d="M109.746 9.4466C116.99 3.92859 125.953 1.15328 135.047 1.61256C144.142 2.07185 152.78 5.73605 159.43 11.9558" stroke="white" stroke-width="3.13645" stroke-miterlimit="10"/>
<path d="M104.69 66.1668C98.6929 59.6219 95.1387 51.2076 94.6279 42.3453C94.117 33.483 96.6808 24.716 101.886 17.5254" stroke="white" stroke-width="3.13645" stroke-miterlimit="10"/>
<path d="M121.06 40.1309L98.7195 13.7923L107.267 6.54443L126.872 29.6635" stroke="white" stroke-width="3.13645" stroke-miterlimit="10"/>
<path d="M159.967 68.676L160.98 69.8701L152.432 77.118L149.152 73.256" stroke="white" stroke-width="3.13645" stroke-miterlimit="10"/>
<path d="M139.735 32.9505L156.407 13.24L163.36 10.3228L161.456 17.5026L143.567 38.6566" stroke="white" stroke-width="3.13645" stroke-miterlimit="10"/>
<path d="M114.779 72.7047L110.479 77.791L105.431 73.5285L108.272 70.1653" stroke="white" stroke-width="3.13645" stroke-miterlimit="10"/>
</g>
</svg>
