<svg width="140" height="62" viewBox="0 0 140 62" fill="none" xmlns="http://www.w3.org/2000/svg">
<g opacity="0.8">
<mask id="mask0_35_77" style="mask-type:luminance" maskUnits="userSpaceOnUse" x="79" y="0" width="61" height="60">
<path d="M139.75 0H79.75V60H139.75V0Z" fill="white"/>
</mask>
<g mask="url(#mask0_35_77)">
<path d="M69.0337 30V-10.7163H109.75H150.466V30V70.7163H109.75H69.0337V30ZM105.297 37.0717V31.4195L103.825 31.4652L102.354 31.5109L102.312 36.9174C102.289 39.8911 102.305 42.4139 102.347 42.5239C102.401 42.6638 102.854 42.7237 103.86 42.7237H105.297V37.0717ZM111.5 39.185C111.5 35.0661 111.573 34.7764 112.766 34.175C113.595 33.7567 114.007 33.731 114.771 34.05C115.706 34.4406 115.794 34.8717 115.794 39.0666V42.7357L117.265 42.69L118.736 42.6444L118.782 39.1453C118.843 34.534 118.585 33.101 117.519 32.1227C116.157 30.8723 113.418 31.0317 111.946 32.4472L111.518 32.859L111.469 32.185L111.42 31.511H109.989H108.557L108.515 36.9176C108.492 39.8912 108.508 42.4141 108.55 42.524C108.604 42.664 109.057 42.7238 110.063 42.7238H111.5L111.5 39.185ZM124.666 40.8975C124.709 39.2545 124.737 39.1245 125.134 38.7106C125.366 38.4685 125.596 38.271 125.645 38.2717C125.694 38.2723 126.522 39.2712 127.484 40.4911L129.233 42.7092L130.934 42.7165C132.479 42.7237 133.079 42.5892 132.661 42.3308C132.574 42.2774 131.418 40.9063 130.091 39.2836L127.679 36.3332L128.058 35.9778C128.267 35.7823 129.386 34.7395 130.546 33.6604C131.705 32.5813 132.653 31.6383 132.653 31.5648C132.653 31.4915 131.813 31.4314 130.786 31.4314H128.92L126.81 33.5366L124.7 35.6417V31.3099V26.9781H123.19H121.679V34.8569V42.7357L123.15 42.69L124.621 42.6444L124.666 40.8975ZM105.125 28.7154C106.563 27.2778 104.702 25.2629 102.809 26.2071C101.827 26.697 101.827 28.5431 102.81 29.0187C102.997 29.1092 103.484 29.188 103.893 29.1941C104.518 29.2037 104.714 29.1271 105.125 28.7154ZM96.7358 28.1043C98.5414 27.4144 99.5962 25.8906 99.6083 23.9546C99.6232 21.5825 98.2011 20.2418 94.7995 19.4209C92.6384 18.8993 91.9366 18.4315 91.9366 17.5124C91.9366 16.5033 93.4111 15.8338 94.8991 16.1673C95.8217 16.3741 96.1029 16.5251 96.8915 17.2376L97.524 17.809L98.5003 16.8326L99.4768 15.8562L98.9914 15.254C97.4451 13.3353 93.8508 12.7079 91.3785 13.925C89.4935 14.8529 88.6235 16.3061 88.7983 18.2343C88.9945 20.3978 90.2539 21.4941 93.5249 22.3487C95.8748 22.9627 96.8095 23.7385 96.3976 24.733C96.1131 25.4198 95.3878 25.7525 94.175 25.7525C92.8099 25.7525 91.7991 25.3112 90.7121 24.2407L89.8853 23.4265L89.1217 24.2731C87.785 25.7549 87.8055 25.6172 88.7809 26.5619C90.2931 28.0266 91.9128 28.5946 94.3223 28.5052C95.3785 28.466 96.105 28.3453 96.7358 28.1043Z" fill="white"/>
</g>
<path d="M30.8733 57.227C42.6633 57.227 52.22 54.1435 52.22 50.3344C52.1698 49.6781 51.9597 49.0442 51.6079 48.4879C51.2561 47.9316 50.7735 47.4699 50.2021 47.1432L35.5496 25.2919V10.6168C36.3035 10.305 36.757 9.91957 36.757 9.48311C36.757 8.46282 34.1212 7.63525 30.8733 7.63525H30.9073C27.6594 7.63525 25.0236 8.46282 25.0236 9.48311C25.0236 9.90824 25.4431 10.3504 26.2026 10.6621L26.2366 25.2806L11.5785 47.1432C11.0071 47.4699 10.5244 47.9316 10.1727 48.4879C9.8209 49.0442 9.61074 49.6781 9.56055 50.3344C9.56055 54.1435 19.1173 57.227 30.9073 57.227" stroke="white" stroke-width="2.35234" stroke-miterlimit="10"/>
<path d="M19.2872 46.4231C21.2711 46.9899 25.2389 48.407 29.2067 48.407" stroke="white" stroke-width="2.26731" stroke-miterlimit="10" stroke-linecap="round"/>
<path d="M21.5546 42.1719C24.2354 43.1527 27.0611 43.6795 29.9153 43.7307" stroke="white" stroke-width="2.26731" stroke-miterlimit="10" stroke-linecap="round"/>
<path d="M23.8105 37.8074C25.9877 38.602 28.2957 38.977 30.6125 38.9127" stroke="white" stroke-width="2.26731" stroke-miterlimit="10" stroke-linecap="round"/>
<path d="M25.8058 33.386C26.9394 33.6694 27.7897 34.0945 31.4741 34.0945" stroke="white" stroke-width="2.26731" stroke-miterlimit="10" stroke-linecap="round"/>
<path d="M52.6621 12.1301C57.3542 17.4932 59.9001 24.4003 59.8112 31.5257C59.7223 38.651 57.0048 45.4925 52.1803 50.7368" stroke="white" stroke-width="2.35234" stroke-miterlimit="10"/>
<path d="M13.3866 8.16259C18.8193 4.02408 25.5417 1.9426 32.3625 2.28706C39.1832 2.63152 45.6618 5.37968 50.6499 10.0445" stroke="white" stroke-width="2.35234" stroke-miterlimit="10"/>
<path d="M9.59454 50.7027C5.09672 45.7941 2.43108 39.4833 2.04793 32.8366C1.66479 26.1899 3.58762 19.6147 7.49161 14.2217" stroke="white" stroke-width="2.35234" stroke-miterlimit="10"/>
<path d="M21.872 31.1757L5.11658 11.4217L11.5274 5.98584L26.2309 23.3251" stroke="white" stroke-width="2.35234" stroke-miterlimit="10"/>
<path d="M51.0522 52.5845L51.8118 53.4801L45.401 58.9159L42.9409 56.0195" stroke="white" stroke-width="2.35234" stroke-miterlimit="10"/>
<path d="M35.8783 25.7907L48.3825 11.0078L53.5973 8.81982L52.1689 14.2047L38.7521 30.0702" stroke="white" stroke-width="2.35234" stroke-miterlimit="10"/>
<path d="M17.1617 55.606L13.9364 59.4207L10.15 56.2238L12.2813 53.7014" stroke="white" stroke-width="2.35234" stroke-miterlimit="10"/>
</g>
</svg>
